<svg width="50" height="50" viewBox="0 0 50 50" fill="none" xmlns="http://www.w3.org/2000/svg">
<path fill-rule="evenodd" clip-rule="evenodd" d="M41.6665 24.9778C41.6665 16.4695 35.3047 9.44861 27.0832 8.42231V13.1628C27.0832 14.3146 26.1504 15.2483 24.9998 15.2483C23.8492 15.2483 22.9165 14.3146 22.9165 13.1628V7.60416C22.9165 5.57044 24.6795 4.12084 26.3933 4.16799C26.4951 4.17079 26.5965 4.1802 26.6976 4.1896C26.7313 4.19272 26.7649 4.19584 26.7985 4.19872C37.4623 5.11159 45.8332 14.0661 45.8332 24.9778C45.8332 36.4961 36.5058 45.8335 24.9998 45.8335C13.4939 45.8335 4.1665 36.4961 4.1665 24.9778C4.1665 19.3731 6.388 14.1152 10.2684 10.2306C11.082 9.41611 12.4011 9.41611 13.2147 10.2306C14.0283 11.045 14.0283 12.3656 13.2147 13.18C10.1079 16.2901 8.33317 20.4907 8.33317 24.9778C8.33317 34.1924 15.7951 41.6624 24.9998 41.6624C34.2046 41.6624 41.6665 34.1924 41.6665 24.9778ZM22.6084 27.4995C22.4153 27.3062 22.2497 27.0958 22.1116 26.8732L22.1074 26.8774L15.2006 15.7423C15.0792 15.5466 15.1392 15.2895 15.3347 15.1679C15.4693 15.0843 15.6397 15.0843 15.7743 15.1679L26.8972 22.0821L26.893 22.0863C27.1155 22.2246 27.3257 22.3904 27.5189 22.5837C28.8749 23.9412 28.8749 26.142 27.5189 27.4995C26.1629 28.8569 23.9644 28.8569 22.6084 27.4995Z" fill="#EF4444"/>
</svg>
