<svg width="28" height="28" viewBox="0 0 28 28" fill="none" xmlns="http://www.w3.org/2000/svg">
<path d="M26.3385 2.4502L25.4546 1.56641C24.9664 1.07812 24.175 1.07812 23.6869 1.56641L22.9797 2.27344L25.6313 4.92529L26.3385 4.21777C26.8267 3.72998 26.8267 2.93848 26.3385 2.4502Z" fill="white"/>
<path d="M14.861 15.6885V15.6953L11.8789 16.1396C11.8242 16.1479 11.7734 16.1099 11.7653 16.0557C11.7638 16.0459 11.7638 16.0356 11.7653 16.0259L12.2094 13.0439V13.0366L22.46 2.78613L23.3439 3.66992L13.5128 13.501C13.6702 13.7495 13.7959 13.9209 13.8899 14.0151C13.9854 14.1104 14.1533 14.2314 14.3937 14.3774L14.3965 14.3853L24.2278 4.55371L25.1117 5.43799L14.861 15.6885Z" fill="white"/>
<path d="M19 5.01562H4V24L23 24.0156V9.01562L22 10.0156V23L5 23.0156V6.01562H18L19 5.01562Z" fill="white"/>
</svg>
