<?xml version="1.0" encoding="UTF-8"?>
<svg id="Layer_2" data-name="Layer 2" xmlns="http://www.w3.org/2000/svg" xmlns:xlink="http://www.w3.org/1999/xlink" viewBox="0 0 608.67 608.68">
  <defs>
    <style>
      .cls-1 {
        isolation: isolate;
      }

      .cls-2 {
        fill: none;
        stroke: #ece6ef;
        stroke-miterlimit: 10;
        stroke-width: .5px;
      }

      .cls-3 {
        clip-path: url(#clippath-1);
      }

      .cls-4 {
        clip-path: url(#clippath);
      }
    </style>
    <clipPath id="clippath">
      <path class="cls-2" d="m154.34,568.81c42.89,24.37,94.23,34.99,149.43,27.57-55.2,7.42-106.54-3.2-149.43-27.57-8.23-4.89-19.26-11.41-26.89-17.19-6.43-4.88-15.01-11.4-21.17-16.6-5.06-4.27-11.52-10.31-16.23-14.97-18.44-18.3-39.92-44.26-57.46-79.07-3.49-6.92-7.72-16.36-10.63-23.55-2.67-6.6-5.76-15.58-7.95-22.35-3.99-12.34-7.89-29.26-9.89-42.07-2.29-14.61-3.94-34.36-3.86-49.15.04-8.12.54-18.95,1.24-27.04.63-7.31,2.16-16.98,3.17-24.25,1.1-7.87,3.6-18.21,5.63-25.9,1.82-6.92,4.63-16.04,6.99-22.8,2.61-7.47,6.58-17.27,9.8-24.5,2.85-6.4,7.16-14.7,10.43-20.9,3.75-7.12,9.49-16.21,13.91-22.92,3.78-5.73,9.27-13.06,13.42-18.52,5.1-6.7,12.57-15.13,18.32-21.28,4.54-4.85,10.81-11.12,15.77-15.53,6.96-6.19,16.58-14.08,23.94-19.8.58-.45,14.48-11.18,34.63-22.32,9.15-5.06,21.78-11.07,31.43-15.09,7.66-3.19,23.39-9.16,43.61-14.1,6.33-1.54,14.82-3.36,21.25-4.41,3.02-.49,7.04-1.16,10.07-1.54,4.65-.58,10.86-1.24,15.53-1.68.35-.03,8.68-.81,20.67-.99,1.98-.03,4.62-.06,6.6-.02,3.96.07,9.23.21,13.19.39,5.8.27,15.1,1.05,21.27,1.84,2.36.3,5.5.71,7.86,1.06,2.53.38,5.9.95,8.42,1.37s6.07,1.16,8.66,1.66c3.3.63,7.65,1.67,10.91,2.47s7.27,1.9,10.38,2.75c4.57,1.25,10.6,3.12,15.06,4.71,6.28,2.24,14.6,5.39,20.76,7.95,4.75,1.97,10.99,4.84,15.57,7.16,6.63,3.36,15.35,8.09,21.74,11.87,5.33,3.15,12.32,7.59,17.34,11.21s11.9,8.56,16.77,12.53c6.12,5,14.11,11.88,19.82,17.35,4.85,4.65,11.14,11.04,15.61,16.04,5.2,5.82,11.94,13.79,16.62,20.04,7.82,10.44,16.42,22.64,26.29,41.07,6.66,12.43,13.95,29.86,18.79,43.1,2.7,7.37,5.54,17.47,7.48,25.08,1.79,7.02,3.62,16.52,4.95,23.64,1.47,7.86,2.63,18.48,3.26,26.46.72,9.07,1.22,21.22.9,30.31-.26,7.42-.71,17.33-1.48,24.72-.83,8-2.21,18.67-3.86,26.54-1.48,7.07-3.5,16.49-5.45,23.44-2.15,7.71-5.28,17.94-8.2,25.39-2.58,6.57-6.06,15.33-9.07,21.71-3.48,7.38-8.34,17.12-12.54,24.12-7.07,11.79-17.58,26.85-25.85,37.82-5.09,6.76-12.75,15.09-18.62,21.18-16.68,17.31-31.83,28.91-40.26,35.04-5.92,4.31-13.98,9.84-20.29,13.55-9.06,5.32-21.35,12.1-30.89,16.52-6.75,3.13-15.94,6.92-22.92,9.49-6.55,2.42-15.42,5.29-22.15,7.13-14.74,4.01-20.48,5.13-31.99,7.21-5.77,1.04-17.17,2.57-25.55,3.21-9.15.7-12.66.79-13.98.83-9.85.26-10.41.25-19.84.06-.89-.02-7.16-.22-13.45-.7-2.77-.21-7.42-.56-14.42-1.41-8.82-1.07-16.21-2.42-16.28-2.43-2.85-.52-6.65-1.24-9.49-1.83-3.04-.64-7.06-1.61-10.09-2.3-3.9-.89-9.03-2.34-12.87-3.47s-8.83-2.71-12.58-3.99c-6.31-2.16-14.68-5.21-20.76-7.95-9.5-4.28-21.92-10.52-31.12-15.41Z"/>
    </clipPath>
    <clipPath id="clippath-1">
      <path class="cls-2" d="m344.88,605.7c-2.37.32-5.53.73-7.91.96-9.43.91-10.42,1.01-14.8,1.24-5.72.3-7.86.41-13.59.49-6.48.09-11.52-.06-13.18-.1-13.2-.39-23.41-1.58-27.77-2.09-5.13-.6-5.96-.73-16.09-2.39-2.61-.43-6.06-1.15-8.66-1.65-5.34-1.03-15.84-3.6-21.59-5.28-7.68-2.24-17.8-5.62-25.29-8.41-5.52-2.05-12.78-5.09-18.11-7.6-7.18-3.39-16.59-8.24-23.54-12.05-74.24-42.18-123.16-125.53-122.97-227.76C31.67,179.76,154.11,32.58,304.86,12.3,154.11,32.58,31.67,179.76,31.37,341.05c-.19,102.23,48.73,185.58,122.97,227.76-5.19-3.18-12.29-7.16-17.31-10.61-7.99-5.5-18.58-12.98-26.02-19.21-10.17-8.52-22.81-20.94-32-30.5-6.05-6.29-13.27-15.45-18.49-22.44-4.84-6.47-11.02-15.33-15.15-22.27-3.57-6-8.45-13.95-11.45-20.25-3.41-7.13-8.18-16.56-11.05-23.92-2.58-6.62-5.96-15.49-8.12-22.27-3.28-10.24-8.2-27.32-11.36-49.25-1.89-13.17-3.25-30.94-3.12-44.25.15-14.79,1.97-34.48,4.04-49.12,1.11-7.82,3.44-18.11,5.4-25.76,5.34-20.92,11.91-37.19,16.24-47.03,16.64-37.79,37.86-64.95,53.36-82,21.96-24.15,47.52-44.53,75.97-60.57,4.63-2.61,10.89-5.92,15.67-8.24,5.33-2.59,12.49-5.94,18.01-8.1,6.65-2.61,15.58-5.95,22.39-8.14s15.51-4.59,22.24-6.21c6.31-1.52,14.78-3.29,21.18-4.32,2.7-.44,6.3-1.02,9.01-1.36,4.65-.58,10.87-1.25,15.54-1.69.57-.05,8.79-.82,20.76-1,1.98-.03,4.62-.06,6.59-.02,3.96.07,9.23.22,13.19.39,3.83.16,6.93.43,13.74,1.02,2.23.19,5.2.56,7.43.81,6.29.71,15.47,2.27,16.09,2.39,7.34,1.38,12.64,2.37,19.02,3.98,3.38.85,7.88,2,11.23,2.96,3.77,1.08,8.8,2.55,12.51,3.85,4.63,1.63,10.82,3.77,15.38,5.56s10.96,4.39,15.51,6.6c7.14,3.47,16.61,8.2,23.54,12.05,5.38,2.99,12.47,7.18,17.49,10.74s12.07,8.22,16.99,12.08c6.74,5.28,15.56,12.53,21.84,18.34,4.92,4.55,11.32,10.81,15.85,15.74,5.65,6.14,13.03,14.5,18.06,21.15,4.16,5.5,9.64,12.88,13.41,18.65,4.38,6.69,10.04,15.75,13.75,22.84,6.52,12.49,14.2,29.7,19.16,42.89,2.8,7.46,5.77,17.69,7.8,25.39,1.85,7,3.74,16.47,5.13,23.57,1.54,7.89,2.87,18.55,3.48,26.56s1.12,18.91,1.14,27.02c.01,7.45-.43,17.4-1.05,24.82-.74,8.91-2.17,20.77-3.91,29.54-1.41,7.09-3.38,16.53-5.27,23.51-2.05,7.59-5.03,17.66-7.83,25-2.52,6.6-5.93,15.4-8.87,21.82-3.27,7.14-7.86,16.57-11.82,23.36-6.94,11.89-17.3,27.07-25.41,38.19-4.62,6.33-11.6,14.14-16.93,19.89-5.7,6.15-13.56,14.14-19.92,19.6-9.46,8.11-22.47,18.5-32.72,25.58-6.92,4.78-16.47,10.7-23.91,14.64-4.62,2.45-10.78,5.74-15.51,7.97-5.61,2.65-13.16,6.04-18.95,8.29-5.92,2.3-16.95,6.59-33.16,10.93-12.67,3.4-25.9,6.07-38.26,7.72Z"/>
    </clipPath>
  </defs>
  <g id="Layer_1-2" data-name="Layer 1">
    <g class="cls-1">
      <g class="cls-1">
        <g class="cls-4">
          <g class="cls-1">
            <g>
              <path class="cls-2" d="m303.78,596.38c-150.75,20.27-272.7-94.04-272.4-255.33,73.92,41.99,256.04,59.61,406.78,39.33-.3,161.29-60.46,257.99-134.38,215.99Z"/>
              <path class="cls-2" d="m166.09,575.03c37.31,21.2,129.23,30.08,205.31,19.85"/>
              <path class="cls-2" d="m68.36,483.43c63.82,36.26,221.08,51.47,351.25,33.96"/>
              <path class="cls-2" d="m303.78,596.38c-92.86,38.7-167.89-60.67-167.59-221.96"/>
              <path class="cls-2" d="m303.78,596.38c-12.26,46.49-21.95-46.56-21.65-207.85"/>
            </g>
            <g>
              <path class="cls-2" d="m303.78,596.38c73.92,42,134.08-54.7,134.38-215.99,150.74-20.27,213.02-70.75,139.11-112.74-.3,161.29-122.74,308.46-273.49,328.74Z"/>
              <path class="cls-2" d="m371.4,594.89c76.08-10.23,107.52-35.71,70.21-56.9"/>
              <path class="cls-2" d="m419.61,517.4c130.16-17.5,183.94-61.09,120.12-97.35"/>
              <path class="cls-2" d="m303.78,596.38c139.91,26.03,253.57-83.61,253.87-244.9"/>
              <path class="cls-2" d="m303.78,596.38c167.47,3.69,303.47-124.06,303.77-285.35"/>
            </g>
            <g>
              <path class="cls-2" d="m303.78,596.38c150.75-20.27,273.19-167.45,273.49-328.74-73.92-41.99-256.04-59.61-406.78-39.33-.3,161.29,59.38,326.07,133.29,368.07Z"/>
              <path class="cls-2" d="m441.61,537.98c-37.31-21.2-129.23-30.08-205.31-19.85"/>
              <path class="cls-2" d="m539.73,420.05c-63.82-36.26-221.08-51.47-351.25-33.96"/>
              <path class="cls-2" d="m303.78,596.38c92.86-38.7,168.37-200.81,168.67-362.1"/>
              <path class="cls-2" d="m303.78,596.38c12.26-46.49,22.44-214.93,22.74-376.21"/>
            </g>
            <g>
              <path class="cls-2" d="m303.78,596.38c-73.92-42-133.59-206.78-133.29-368.07C19.74,248.58-42.54,299.05,31.37,341.05c-.3,161.29,121.66,275.6,272.4,255.33Z"/>
              <path class="cls-2" d="m236.3,518.13c-76.08,10.23-107.52,35.71-70.21,56.9"/>
              <path class="cls-2" d="m188.48,386.08c-130.16,17.5-183.94,61.09-120.12,97.35"/>
              <path class="cls-2" d="m303.78,596.38c-139.91-26.03-253.08-177.87-252.78-339.16"/>
              <path class="cls-2" d="m303.78,596.38C136.3,592.68.79,458.95,1.09,297.66"/>
            </g>
            <g>
              <path class="cls-2" d="m31.37,341.05C31.67,179.76,154.11,32.58,304.86,12.3c73.92,42,133.59,206.79,133.29,368.08-150.74,20.27-332.87,2.66-406.78-39.33Z"/>
              <path class="cls-2" d="m68.91,188.64c63.82,36.26,221.08,51.47,351.25,33.96"/>
              <path class="cls-2" d="m167.03,70.7c37.31,21.2,129.23,30.08,205.31,19.85"/>
              <path class="cls-2" d="m136.19,374.42c.3-161.29,75.81-323.41,168.67-362.11"/>
              <path class="cls-2" d="m282.12,388.53c.3-161.29,10.48-329.73,22.74-376.22"/>
            </g>
            <g>
              <path class="cls-2" d="m438.16,380.38c.3-161.29-59.38-326.08-133.29-368.08,150.75-20.27,272.7,94.05,272.4,255.34,73.92,41.99,11.63,92.47-139.11,112.74Z"/>
              <path class="cls-2" d="m420.16,222.6c130.16-17.5,183.94-61.09,120.12-97.35"/>
              <path class="cls-2" d="m372.34,90.55c76.08-10.23,107.52-35.71,70.21-56.9"/>
              <path class="cls-2" d="m557.64,351.48c.3-161.29-112.87-313.14-252.78-339.17"/>
              <path class="cls-2" d="m607.55,311.03c.3-161.29-135.21-295.03-302.69-298.73"/>
            </g>
            <g>
              <path class="cls-2" d="m577.27,267.64c.3-161.29-121.66-275.61-272.4-255.34-73.92-42-134.08,54.71-134.38,216,150.74-20.27,332.87-2.66,406.78,39.33Z"/>
              <path class="cls-2" d="m540.27,125.25c-63.82-36.26-221.08-51.47-351.25-33.96"/>
              <path class="cls-2" d="m442.55,33.65C405.24,12.45,313.32,3.57,237.24,13.8"/>
              <path class="cls-2" d="m472.45,234.27c.3-161.29-74.73-260.67-167.59-221.97"/>
              <path class="cls-2" d="m326.52,220.16c.3-161.29-9.4-254.35-21.65-207.86"/>
            </g>
            <g>
              <path class="cls-2" d="m170.48,228.31c.3-161.29,60.46-258,134.38-216C154.11,32.58,31.67,179.76,31.37,341.05c-73.92-41.99-11.63-92.47,139.11-112.74Z"/>
              <path class="cls-2" d="m189.03,91.29C58.87,108.79,5.09,152.38,68.91,188.64"/>
              <path class="cls-2" d="m237.24,13.8c-76.08,10.23-107.52,35.71-70.21,56.9"/>
              <path class="cls-2" d="m50.99,257.21C51.29,95.92,164.95-13.73,304.86,12.3"/>
              <path class="cls-2" d="m1.09,297.66C1.39,136.37,137.39,8.61,304.86,12.3"/>
            </g>
          </g>
          <path class="cls-2" d="m154.34,568.81c42.89,24.37,94.23,34.99,149.43,27.57-55.2,7.42-106.54-3.2-149.43-27.57-8.23-4.89-19.26-11.41-26.89-17.19-6.43-4.88-15.01-11.4-21.17-16.6-5.06-4.27-11.52-10.31-16.23-14.97-18.44-18.3-39.92-44.26-57.46-79.07-3.49-6.92-7.72-16.36-10.63-23.55-2.67-6.6-5.76-15.58-7.95-22.35-3.99-12.34-7.89-29.26-9.89-42.07-2.29-14.61-3.94-34.36-3.86-49.15.04-8.12.54-18.95,1.24-27.04.63-7.31,2.16-16.98,3.17-24.25,1.1-7.87,3.6-18.21,5.63-25.9,1.82-6.92,4.63-16.04,6.99-22.8,2.61-7.47,6.58-17.27,9.8-24.5,2.85-6.4,7.16-14.7,10.43-20.9,3.75-7.12,9.49-16.21,13.91-22.92,3.78-5.73,9.27-13.06,13.42-18.52,5.1-6.7,12.57-15.13,18.32-21.28,4.54-4.85,10.81-11.12,15.77-15.53,6.96-6.19,16.58-14.08,23.94-19.8.58-.45,14.48-11.18,34.63-22.32,9.15-5.06,21.78-11.07,31.43-15.09,7.66-3.19,23.39-9.16,43.61-14.1,6.33-1.54,14.82-3.36,21.25-4.41,3.02-.49,7.04-1.16,10.07-1.54,4.65-.58,10.86-1.24,15.53-1.68.35-.03,8.68-.81,20.67-.99,1.98-.03,4.62-.06,6.6-.02,3.96.07,9.23.21,13.19.39,5.8.27,15.1,1.05,21.27,1.84,2.36.3,5.5.71,7.86,1.06,2.53.38,5.9.95,8.42,1.37s6.07,1.16,8.66,1.66c3.3.63,7.65,1.67,10.91,2.47s7.27,1.9,10.38,2.75c4.57,1.25,10.6,3.12,15.06,4.71,6.28,2.24,14.6,5.39,20.76,7.95,4.75,1.97,10.99,4.84,15.57,7.16,6.63,3.36,15.35,8.09,21.74,11.87,5.33,3.15,12.32,7.59,17.34,11.21s11.9,8.56,16.77,12.53c6.12,5,14.11,11.88,19.82,17.35,4.85,4.65,11.14,11.04,15.61,16.04,5.2,5.82,11.94,13.79,16.62,20.04,7.82,10.44,16.42,22.64,26.29,41.07,6.66,12.43,13.95,29.86,18.79,43.1,2.7,7.37,5.54,17.47,7.48,25.08,1.79,7.02,3.62,16.52,4.95,23.64,1.47,7.86,2.63,18.48,3.26,26.46.72,9.07,1.22,21.22.9,30.31-.26,7.42-.71,17.33-1.48,24.72-.83,8-2.21,18.67-3.86,26.54-1.48,7.07-3.5,16.49-5.45,23.44-2.15,7.71-5.28,17.94-8.2,25.39-2.58,6.57-6.06,15.33-9.07,21.71-3.48,7.38-8.34,17.12-12.54,24.12-7.07,11.79-17.58,26.85-25.85,37.82-5.09,6.76-12.75,15.09-18.62,21.18-16.68,17.31-31.83,28.91-40.26,35.04-5.92,4.31-13.98,9.84-20.29,13.55-9.06,5.32-21.35,12.1-30.89,16.52-6.75,3.13-15.94,6.92-22.92,9.49-6.55,2.42-15.42,5.29-22.15,7.13-14.74,4.01-20.48,5.13-31.99,7.21-5.77,1.04-17.17,2.57-25.55,3.21-9.15.7-12.66.79-13.98.83-9.85.26-10.41.25-19.84.06-.89-.02-7.16-.22-13.45-.7-2.77-.21-7.42-.56-14.42-1.41-8.82-1.07-16.21-2.42-16.28-2.43-2.85-.52-6.65-1.24-9.49-1.83-3.04-.64-7.06-1.61-10.09-2.3-3.9-.89-9.03-2.34-12.87-3.47s-8.83-2.71-12.58-3.99c-6.31-2.16-14.68-5.21-20.76-7.95-9.5-4.28-21.92-10.52-31.12-15.41Z"/>
        </g>
        <path class="cls-2" d="m154.34,568.81c42.89,24.37,94.23,34.99,149.43,27.57-55.2,7.42-106.54-3.2-149.43-27.57-8.23-4.89-19.26-11.41-26.89-17.19-6.43-4.88-15.01-11.4-21.17-16.6-5.06-4.27-11.52-10.31-16.23-14.97-18.44-18.3-39.92-44.26-57.46-79.07-3.49-6.92-7.72-16.36-10.63-23.55-2.67-6.6-5.76-15.58-7.95-22.35-3.99-12.34-7.89-29.26-9.89-42.07-2.29-14.61-3.94-34.36-3.86-49.15.04-8.12.54-18.95,1.24-27.04.63-7.31,2.16-16.98,3.17-24.25,1.1-7.87,3.6-18.21,5.63-25.9,1.82-6.92,4.63-16.04,6.99-22.8,2.61-7.47,6.58-17.27,9.8-24.5,2.85-6.4,7.16-14.7,10.43-20.9,3.75-7.12,9.49-16.21,13.91-22.92,3.78-5.73,9.27-13.06,13.42-18.52,5.1-6.7,12.57-15.13,18.32-21.28,4.54-4.85,10.81-11.12,15.77-15.53,6.96-6.19,16.58-14.08,23.94-19.8.58-.45,14.48-11.18,34.63-22.32,9.15-5.06,21.78-11.07,31.43-15.09,7.66-3.19,23.39-9.16,43.61-14.1,6.33-1.54,14.82-3.36,21.25-4.41,3.02-.49,7.04-1.16,10.07-1.54,4.65-.58,10.86-1.24,15.53-1.68.35-.03,8.68-.81,20.67-.99,1.98-.03,4.62-.06,6.6-.02,3.96.07,9.23.21,13.19.39,5.8.27,15.1,1.05,21.27,1.84,2.36.3,5.5.71,7.86,1.06,2.53.38,5.9.95,8.42,1.37s6.07,1.16,8.66,1.66c3.3.63,7.65,1.67,10.91,2.47s7.27,1.9,10.38,2.75c4.57,1.25,10.6,3.12,15.06,4.71,6.28,2.24,14.6,5.39,20.76,7.95,4.75,1.97,10.99,4.84,15.57,7.16,6.63,3.36,15.35,8.09,21.74,11.87,5.33,3.15,12.32,7.59,17.34,11.21s11.9,8.56,16.77,12.53c6.12,5,14.11,11.88,19.82,17.35,4.85,4.65,11.14,11.04,15.61,16.04,5.2,5.82,11.94,13.79,16.62,20.04,7.82,10.44,16.42,22.64,26.29,41.07,6.66,12.43,13.95,29.86,18.79,43.1,2.7,7.37,5.54,17.47,7.48,25.08,1.79,7.02,3.62,16.52,4.95,23.64,1.47,7.86,2.63,18.48,3.26,26.46.72,9.07,1.22,21.22.9,30.31-.26,7.42-.71,17.33-1.48,24.72-.83,8-2.21,18.67-3.86,26.54-1.48,7.07-3.5,16.49-5.45,23.44-2.15,7.71-5.28,17.94-8.2,25.39-2.58,6.57-6.06,15.33-9.07,21.71-3.48,7.38-8.34,17.12-12.54,24.12-7.07,11.79-17.58,26.85-25.85,37.82-5.09,6.76-12.75,15.09-18.62,21.18-16.68,17.31-31.83,28.91-40.26,35.04-5.92,4.31-13.98,9.84-20.29,13.55-9.06,5.32-21.35,12.1-30.89,16.52-6.75,3.13-15.94,6.92-22.92,9.49-6.55,2.42-15.42,5.29-22.15,7.13-14.74,4.01-20.48,5.13-31.99,7.21-5.77,1.04-17.17,2.57-25.55,3.21-9.15.7-12.66.79-13.98.83-9.85.26-10.41.25-19.84.06-.89-.02-7.16-.22-13.45-.7-2.77-.21-7.42-.56-14.42-1.41-8.82-1.07-16.21-2.42-16.28-2.43-2.85-.52-6.65-1.24-9.49-1.83-3.04-.64-7.06-1.61-10.09-2.3-3.9-.89-9.03-2.34-12.87-3.47s-8.83-2.71-12.58-3.99c-6.31-2.16-14.68-5.21-20.76-7.95-9.5-4.28-21.92-10.52-31.12-15.41Z"/>
      </g>
      <g class="cls-1">
        <g class="cls-3">
          <g class="cls-1">
            <g>
              <path class="cls-2" d="m303.78,596.38c-150.75,20.27-272.7-94.04-272.4-255.33,73.92,41.99,256.04,59.61,406.78,39.33-.3,161.29-60.46,257.99-134.38,215.99Z"/>
              <path class="cls-2" d="m166.09,575.03c37.31,21.2,129.23,30.08,205.31,19.85"/>
              <path class="cls-2" d="m68.36,483.43c63.82,36.26,221.08,51.47,351.25,33.96"/>
              <path class="cls-2" d="m303.78,596.38c-92.86,38.7-167.89-60.67-167.59-221.96"/>
              <path class="cls-2" d="m303.78,596.38c-12.26,46.49-21.95-46.56-21.65-207.85"/>
            </g>
            <g>
              <path class="cls-2" d="m303.78,596.38c73.92,42,134.08-54.7,134.38-215.99,150.74-20.27,213.02-70.75,139.11-112.74-.3,161.29-122.74,308.46-273.49,328.74Z"/>
              <path class="cls-2" d="m371.4,594.89c76.08-10.23,107.52-35.71,70.21-56.9"/>
              <path class="cls-2" d="m419.61,517.4c130.16-17.5,183.94-61.09,120.12-97.35"/>
              <path class="cls-2" d="m303.78,596.38c139.91,26.03,253.57-83.61,253.87-244.9"/>
              <path class="cls-2" d="m303.78,596.38c167.47,3.69,303.47-124.06,303.77-285.35"/>
            </g>
            <g>
              <path class="cls-2" d="m303.78,596.38c150.75-20.27,273.19-167.45,273.49-328.74-73.92-41.99-256.04-59.61-406.78-39.33-.3,161.29,59.38,326.07,133.29,368.07Z"/>
              <path class="cls-2" d="m441.61,537.98c-37.31-21.2-129.23-30.08-205.31-19.85"/>
              <path class="cls-2" d="m539.73,420.05c-63.82-36.26-221.08-51.47-351.25-33.96"/>
              <path class="cls-2" d="m303.78,596.38c92.86-38.7,168.37-200.81,168.67-362.1"/>
              <path class="cls-2" d="m303.78,596.38c12.26-46.49,22.44-214.93,22.74-376.21"/>
            </g>
            <g>
              <path class="cls-2" d="m303.78,596.38c-73.92-42-133.59-206.78-133.29-368.07C19.74,248.58-42.54,299.05,31.37,341.05c-.3,161.29,121.66,275.6,272.4,255.33Z"/>
              <path class="cls-2" d="m236.3,518.13c-76.08,10.23-107.52,35.71-70.21,56.9"/>
              <path class="cls-2" d="m188.48,386.08c-130.16,17.5-183.94,61.09-120.12,97.35"/>
              <path class="cls-2" d="m303.78,596.38c-139.91-26.03-253.08-177.87-252.78-339.16"/>
              <path class="cls-2" d="m303.78,596.38C136.3,592.68.79,458.95,1.09,297.66"/>
            </g>
            <g>
              <path class="cls-2" d="m31.37,341.05C31.67,179.76,154.11,32.58,304.86,12.3c73.92,42,133.59,206.79,133.29,368.08-150.74,20.27-332.87,2.66-406.78-39.33Z"/>
              <path class="cls-2" d="m68.91,188.64c63.82,36.26,221.08,51.47,351.25,33.96"/>
              <path class="cls-2" d="m167.03,70.7c37.31,21.2,129.23,30.08,205.31,19.85"/>
              <path class="cls-2" d="m136.19,374.42c.3-161.29,75.81-323.41,168.67-362.11"/>
              <path class="cls-2" d="m282.12,388.53c.3-161.29,10.48-329.73,22.74-376.22"/>
            </g>
            <g>
              <path class="cls-2" d="m438.16,380.38c.3-161.29-59.38-326.08-133.29-368.08,150.75-20.27,272.7,94.05,272.4,255.34,73.92,41.99,11.63,92.47-139.11,112.74Z"/>
              <path class="cls-2" d="m420.16,222.6c130.16-17.5,183.94-61.09,120.12-97.35"/>
              <path class="cls-2" d="m372.34,90.55c76.08-10.23,107.52-35.71,70.21-56.9"/>
              <path class="cls-2" d="m557.64,351.48c.3-161.29-112.87-313.14-252.78-339.17"/>
              <path class="cls-2" d="m607.55,311.03c.3-161.29-135.21-295.03-302.69-298.73"/>
            </g>
            <g>
              <path class="cls-2" d="m577.27,267.64c.3-161.29-121.66-275.61-272.4-255.34-73.92-42-134.08,54.71-134.38,216,150.74-20.27,332.87-2.66,406.78,39.33Z"/>
              <path class="cls-2" d="m540.27,125.25c-63.82-36.26-221.08-51.47-351.25-33.96"/>
              <path class="cls-2" d="m442.55,33.65C405.24,12.45,313.32,3.57,237.24,13.8"/>
              <path class="cls-2" d="m472.45,234.27c.3-161.29-74.73-260.67-167.59-221.97"/>
              <path class="cls-2" d="m326.52,220.16c.3-161.29-9.4-254.35-21.65-207.86"/>
            </g>
            <g>
              <path class="cls-2" d="m170.48,228.31c.3-161.29,60.46-258,134.38-216C154.11,32.58,31.67,179.76,31.37,341.05c-73.92-41.99-11.63-92.47,139.11-112.74Z"/>
              <path class="cls-2" d="m189.03,91.29C58.87,108.79,5.09,152.38,68.91,188.64"/>
              <path class="cls-2" d="m237.24,13.8c-76.08,10.23-107.52,35.71-70.21,56.9"/>
              <path class="cls-2" d="m50.99,257.21C51.29,95.92,164.95-13.73,304.86,12.3"/>
              <path class="cls-2" d="m1.09,297.66C1.39,136.37,137.39,8.61,304.86,12.3"/>
            </g>
          </g>
          <path class="cls-2" d="m344.88,605.7c-2.37.32-5.53.73-7.91.96-9.43.91-10.42,1.01-14.8,1.24-5.72.3-7.86.41-13.59.49-6.48.09-11.52-.06-13.18-.1-13.2-.39-23.41-1.58-27.77-2.09-5.13-.6-5.96-.73-16.09-2.39-2.61-.43-6.06-1.15-8.66-1.65-5.34-1.03-15.84-3.6-21.59-5.28-7.68-2.24-17.8-5.62-25.29-8.41-5.52-2.05-12.78-5.09-18.11-7.6-7.18-3.39-16.59-8.24-23.54-12.05-74.24-42.18-123.16-125.53-122.97-227.76C31.67,179.76,154.11,32.58,304.86,12.3,154.11,32.58,31.67,179.76,31.37,341.05c-.19,102.23,48.73,185.58,122.97,227.76-5.19-3.18-12.29-7.16-17.31-10.61-7.99-5.5-18.58-12.98-26.02-19.21-10.17-8.52-22.81-20.94-32-30.5-6.05-6.29-13.27-15.45-18.49-22.44-4.84-6.47-11.02-15.33-15.15-22.27-3.57-6-8.45-13.95-11.45-20.25-3.41-7.13-8.18-16.56-11.05-23.92-2.58-6.62-5.96-15.49-8.12-22.27-3.28-10.24-8.2-27.32-11.36-49.25-1.89-13.17-3.25-30.94-3.12-44.25.15-14.79,1.97-34.48,4.04-49.12,1.11-7.82,3.44-18.11,5.4-25.76,5.34-20.92,11.91-37.19,16.24-47.03,16.64-37.79,37.86-64.95,53.36-82,21.96-24.15,47.52-44.53,75.97-60.57,4.63-2.61,10.89-5.92,15.67-8.24,5.33-2.59,12.49-5.94,18.01-8.1,6.65-2.61,15.58-5.95,22.39-8.14s15.51-4.59,22.24-6.21c6.31-1.52,14.78-3.29,21.18-4.32,2.7-.44,6.3-1.02,9.01-1.36,4.65-.58,10.87-1.25,15.54-1.69.57-.05,8.79-.82,20.76-1,1.98-.03,4.62-.06,6.59-.02,3.96.07,9.23.22,13.19.39,3.83.16,6.93.43,13.74,1.02,2.23.19,5.2.56,7.43.81,6.29.71,15.47,2.27,16.09,2.39,7.34,1.38,12.64,2.37,19.02,3.98,3.38.85,7.88,2,11.23,2.96,3.77,1.08,8.8,2.55,12.51,3.85,4.63,1.63,10.82,3.77,15.38,5.56s10.96,4.39,15.51,6.6c7.14,3.47,16.61,8.2,23.54,12.05,5.38,2.99,12.47,7.18,17.49,10.74s12.07,8.22,16.99,12.08c6.74,5.28,15.56,12.53,21.84,18.34,4.92,4.55,11.32,10.81,15.85,15.74,5.65,6.14,13.03,14.5,18.06,21.15,4.16,5.5,9.64,12.88,13.41,18.65,4.38,6.69,10.04,15.75,13.75,22.84,6.52,12.49,14.2,29.7,19.16,42.89,2.8,7.46,5.77,17.69,7.8,25.39,1.85,7,3.74,16.47,5.13,23.57,1.54,7.89,2.87,18.55,3.48,26.56s1.12,18.91,1.14,27.02c.01,7.45-.43,17.4-1.05,24.82-.74,8.91-2.17,20.77-3.91,29.54-1.41,7.09-3.38,16.53-5.27,23.51-2.05,7.59-5.03,17.66-7.83,25-2.52,6.6-5.93,15.4-8.87,21.82-3.27,7.14-7.86,16.57-11.82,23.36-6.94,11.89-17.3,27.07-25.41,38.19-4.62,6.33-11.6,14.14-16.93,19.89-5.7,6.15-13.56,14.14-19.92,19.6-9.46,8.11-22.47,18.5-32.72,25.58-6.92,4.78-16.47,10.7-23.91,14.64-4.62,2.45-10.78,5.74-15.51,7.97-5.61,2.65-13.16,6.04-18.95,8.29-5.92,2.3-16.95,6.59-33.16,10.93-12.67,3.4-25.9,6.07-38.26,7.72Z"/>
        </g>
        <path class="cls-2" d="m344.88,605.7c-2.37.32-5.53.73-7.91.96-9.43.91-10.42,1.01-14.8,1.24-5.72.3-7.86.41-13.59.49-6.48.09-11.52-.06-13.18-.1-13.2-.39-23.41-1.58-27.77-2.09-5.13-.6-5.96-.73-16.09-2.39-2.61-.43-6.06-1.15-8.66-1.65-5.34-1.03-15.84-3.6-21.59-5.28-7.68-2.24-17.8-5.62-25.29-8.41-5.52-2.05-12.78-5.09-18.11-7.6-7.18-3.39-16.59-8.24-23.54-12.05-74.24-42.18-123.16-125.53-122.97-227.76C31.67,179.76,154.11,32.58,304.86,12.3,154.11,32.58,31.67,179.76,31.37,341.05c-.19,102.23,48.73,185.58,122.97,227.76-5.19-3.18-12.29-7.16-17.31-10.61-7.99-5.5-18.58-12.98-26.02-19.21-10.17-8.52-22.81-20.94-32-30.5-6.05-6.29-13.27-15.45-18.49-22.44-4.84-6.47-11.02-15.33-15.15-22.27-3.57-6-8.45-13.95-11.45-20.25-3.41-7.13-8.18-16.56-11.05-23.92-2.58-6.62-5.96-15.49-8.12-22.27-3.28-10.24-8.2-27.32-11.36-49.25-1.89-13.17-3.25-30.94-3.12-44.25.15-14.79,1.97-34.48,4.04-49.12,1.11-7.82,3.44-18.11,5.4-25.76,5.34-20.92,11.91-37.19,16.24-47.03,16.64-37.79,37.86-64.95,53.36-82,21.96-24.15,47.52-44.53,75.97-60.57,4.63-2.61,10.89-5.92,15.67-8.24,5.33-2.59,12.49-5.94,18.01-8.1,6.65-2.61,15.58-5.95,22.39-8.14s15.51-4.59,22.24-6.21c6.31-1.52,14.78-3.29,21.18-4.32,2.7-.44,6.3-1.02,9.01-1.36,4.65-.58,10.87-1.25,15.54-1.69.57-.05,8.79-.82,20.76-1,1.98-.03,4.62-.06,6.59-.02,3.96.07,9.23.22,13.19.39,3.83.16,6.93.43,13.74,1.02,2.23.19,5.2.56,7.43.81,6.29.71,15.47,2.27,16.09,2.39,7.34,1.38,12.64,2.37,19.02,3.98,3.38.85,7.88,2,11.23,2.96,3.77,1.08,8.8,2.55,12.51,3.85,4.63,1.63,10.82,3.77,15.38,5.56s10.96,4.39,15.51,6.6c7.14,3.47,16.61,8.2,23.54,12.05,5.38,2.99,12.47,7.18,17.49,10.74s12.07,8.22,16.99,12.08c6.74,5.28,15.56,12.53,21.84,18.34,4.92,4.55,11.32,10.81,15.85,15.74,5.65,6.14,13.03,14.5,18.06,21.15,4.16,5.5,9.64,12.88,13.41,18.65,4.38,6.69,10.04,15.75,13.75,22.84,6.52,12.49,14.2,29.7,19.16,42.89,2.8,7.46,5.77,17.69,7.8,25.39,1.85,7,3.74,16.47,5.13,23.57,1.54,7.89,2.87,18.55,3.48,26.56s1.12,18.91,1.14,27.02c.01,7.45-.43,17.4-1.05,24.82-.74,8.91-2.17,20.77-3.91,29.54-1.41,7.09-3.38,16.53-5.27,23.51-2.05,7.59-5.03,17.66-7.83,25-2.52,6.6-5.93,15.4-8.87,21.82-3.27,7.14-7.86,16.57-11.82,23.36-6.94,11.89-17.3,27.07-25.41,38.19-4.62,6.33-11.6,14.14-16.93,19.89-5.7,6.15-13.56,14.14-19.92,19.6-9.46,8.11-22.47,18.5-32.72,25.58-6.92,4.78-16.47,10.7-23.91,14.64-4.62,2.45-10.78,5.74-15.51,7.97-5.61,2.65-13.16,6.04-18.95,8.29-5.92,2.3-16.95,6.59-33.16,10.93-12.67,3.4-25.9,6.07-38.26,7.72Z"/>
      </g>
    </g>
  </g>
</svg>